<svg preserveAspectRatio="none" width="100%" height="100%" overflow="visible" style="display: block;" viewBox="0 0 123.388 35.543" fill="none" xmlns="http://www.w3.org/2000/svg">
<g id="Group">
<path id="Vector" d="M37.1351 18.906H33.9417C33.9315 18.9701 33.9282 19.0578 33.9282 19.176C33.9282 19.7328 34.0664 20.1715 34.3463 20.4888C34.6262 20.8094 35.0477 20.968 35.6109 20.968C36.4101 20.968 37.1857 20.671 37.941 20.077L38.4131 20.9005C37.5229 21.6025 36.5416 21.9535 35.4625 21.9535C34.6903 21.9535 34.0563 21.7206 33.564 21.2582C33.0716 20.7959 32.8221 20.1412 32.8221 19.2974C32.8221 18.8047 32.9064 18.3052 33.0716 17.8091C33.2369 17.3096 33.4797 16.8372 33.8 16.3951C34.117 15.9496 34.5486 15.5885 35.0916 15.3083C35.6345 15.0282 36.2482 14.8899 36.9294 14.8899C37.5768 14.8899 38.1198 15.062 38.5581 15.4028C38.9965 15.7437 39.2191 16.2297 39.2191 16.8574C39.2191 17.4244 39.0403 17.907 38.6795 18.3052C38.3187 18.7068 37.8028 18.906 37.1317 18.906H37.1351ZM36.7979 15.764C36.1167 15.764 35.5401 15.9833 35.0747 16.4187C34.606 16.854 34.2789 17.4008 34.09 18.0555H37.1081C37.4487 18.0555 37.7151 17.934 37.9107 17.691C38.1029 17.448 38.2007 17.178 38.2007 16.881C38.2007 16.5469 38.0759 16.2803 37.8298 16.0711C37.5836 15.8652 37.2396 15.7606 36.7979 15.7606V15.764Z" fill="var(--fill-0, white)"/>
<path id="Vector_2" d="M45.5416 15.0622H46.6612L45.4742 21.8154H44.3816L44.5705 20.7489C43.5554 21.5656 42.5978 21.9774 41.7008 21.9774C41.0466 21.9774 40.5745 21.7715 40.2878 21.3631C40.0012 20.9548 39.9135 20.4114 40.0316 19.7398L40.8544 15.0622H41.9604L41.1511 19.6723C41.0702 20.1212 41.0938 20.4485 41.2253 20.6578C41.3568 20.8637 41.603 20.9683 41.9739 20.9683C42.7563 20.9683 43.6768 20.57 44.7357 19.7668L45.545 15.0622H45.5416Z" fill="var(--fill-0, white)"/>
<path id="Vector_3" d="M51.7093 14.8865C52.006 14.8865 52.2758 14.9405 52.5186 15.0484L52.1949 16.0204C51.9689 15.9495 51.7531 15.9124 51.5474 15.9124C50.792 15.9124 50.0266 16.26 49.2442 16.9519L48.3944 21.8049H47.2884L48.4754 15.0653H49.5545L49.4061 15.9158C50.0704 15.2341 50.8393 14.8898 51.7093 14.8898V14.8865Z" fill="var(--fill-0, white)"/>
<path id="Vector_4" d="M54.7678 21.95C53.9146 21.95 53.2503 21.707 52.7749 21.2211C52.2994 20.7351 52.06 20.0736 52.06 19.24C52.06 18.9599 52.0869 18.6697 52.1409 18.3625C52.3399 17.3096 52.7782 16.4692 53.4594 15.8348C54.1406 15.2003 54.9634 14.883 55.9245 14.883C56.7877 14.883 57.452 15.1227 57.9241 15.6053C58.3962 16.0845 58.6323 16.746 58.6323 17.5796C58.6323 17.8597 58.6053 18.1533 58.5513 18.4705C58.3726 19.5235 57.9444 20.3638 57.2666 20.9983C56.5888 21.6328 55.7558 21.95 54.7678 21.95ZM54.8352 20.9646C55.5366 20.9646 56.1099 20.7384 56.5584 20.2896C57.0069 19.8407 57.307 19.1961 57.4622 18.3625C57.5161 18.0655 57.5431 17.7956 57.5431 17.5526C57.5431 16.4287 56.9867 15.8685 55.8739 15.8685C55.1725 15.8685 54.5992 16.0912 54.1507 16.5367C53.7022 16.9822 53.3953 17.6268 53.2335 18.4705C53.1795 18.7675 53.1525 19.0375 53.1525 19.2805C53.1525 20.4043 53.7123 20.9646 54.8352 20.9646Z" fill="var(--fill-0, white)"/>
<path id="Vector_5" d="M80.7742 15.0622H81.8937L80.7067 21.8154H79.6142L79.803 20.7489C78.788 21.5656 77.8303 21.9774 76.9333 21.9774C76.2791 21.9774 75.807 21.7715 75.5204 21.3631C75.2337 20.9548 75.146 20.4114 75.2641 19.7398L76.0869 15.0622H77.1929L76.3836 19.6723C76.3027 20.1212 76.3263 20.4485 76.4578 20.6578C76.5893 20.8637 76.8355 20.9683 77.2064 20.9683C77.9888 20.9683 78.9094 20.57 79.9682 19.7668L80.7775 15.0622H80.7742Z" fill="var(--fill-0, white)"/>
<path id="Vector_6" d="M86.9418 14.8865C87.2385 14.8865 87.5083 14.9405 87.7511 15.0484L87.4274 16.0204C87.2014 15.9495 86.9856 15.9124 86.7799 15.9124C86.0246 15.9124 85.2591 16.26 84.4767 16.9519L83.627 21.8049H82.5209L83.7079 15.0653H84.787L84.6386 15.9158C85.3029 15.2341 86.0718 14.8898 86.9418 14.8898V14.8865Z" fill="var(--fill-0, white)"/>
<path id="Vector_7" d="M91.1735 14.8865C92.0908 14.8865 92.863 15.1598 93.4902 15.7099L92.519 20.914C92.3201 22.0108 91.8952 22.8815 91.241 23.5295C90.5868 24.1775 89.7505 24.5015 88.7355 24.5015C88.3578 24.5015 87.997 24.4441 87.6496 24.3327C87.3023 24.2214 87.0629 24.0999 86.928 23.975L87.2247 23.0975C87.7171 23.4046 88.2296 23.5565 88.7591 23.5565C89.4504 23.5565 90.0101 23.3304 90.435 22.8815C90.8599 22.4327 91.1735 21.8522 91.3725 21.1435C90.6981 21.7003 90.0068 21.9804 89.2986 21.9804C88.5365 21.9804 87.9531 21.7442 87.5552 21.2717C87.1539 20.7992 86.955 20.1816 86.955 19.4189C86.955 18.1972 87.3461 17.1375 88.1285 16.2364C88.9108 15.3387 89.9258 14.8898 91.1735 14.8898V14.8865ZM88.0745 19.3615C88.0745 20.4482 88.5399 20.9916 89.474 20.9916C90.2192 20.9916 90.9341 20.6507 91.6153 19.9656L92.3167 16.1892C91.9559 15.9732 91.5445 15.8652 91.0757 15.8652C90.1956 15.8652 89.474 16.2162 88.9142 16.9181C88.3544 17.6201 88.0711 18.4334 88.0711 19.3582L88.0745 19.3615Z" fill="var(--fill-0, white)"/>
<path id="Vector_8" d="M94.138 21.8016L95.3115 15.062H96.4311L95.2441 21.8016H94.138ZM96.0905 14.063C95.6589 14.063 95.4431 13.847 95.4431 13.415C95.4431 13.1619 95.5206 12.956 95.6791 12.794C95.8376 12.6321 96.0365 12.5511 96.2793 12.5511C96.485 12.5511 96.6503 12.6084 96.7717 12.7265C96.8931 12.8447 96.9504 12.9965 96.9403 13.1855C96.9302 13.4555 96.8492 13.6681 96.6975 13.8268C96.5457 13.9854 96.3434 14.063 96.0905 14.063Z" fill="var(--fill-0, white)"/>
<path id="Vector_9" d="M121.699 2.51428C121.959 2.41303 122.124 2.15654 122.124 1.86631C122.124 1.37695 121.803 1.10358 121.25 1.10358H120.252V3.37825H120.782V2.60203H121.156L121.584 3.37825H122.191L121.695 2.51428H121.699ZM121.2 2.17342H120.788V1.55582H121.19C121.426 1.55582 121.577 1.67731 121.577 1.86631C121.577 2.0553 121.432 2.17679 121.196 2.17679L121.2 2.17342ZM121.699 2.51428C121.959 2.41303 122.124 2.15654 122.124 1.86631C122.124 1.37695 121.803 1.10358 121.25 1.10358H120.252V3.37825H120.782V2.60203H121.156L121.584 3.37825H122.191L121.695 2.51428H121.699ZM121.2 2.17342H120.788V1.55582H121.19C121.426 1.55582 121.577 1.67731 121.577 1.86631C121.577 2.0553 121.432 2.17679 121.196 2.17679L121.2 2.17342ZM121.163 0H121.136C119.885 0 118.907 0.978713 118.907 2.22742V2.25442C118.907 3.50649 119.885 4.48521 121.136 4.48521H121.163C122.407 4.48521 123.388 3.50649 123.388 2.25442V2.22742C123.388 0.978713 122.41 0 121.163 0ZM122.886 2.25442C122.886 3.223 122.127 3.98235 121.163 3.98235H121.136C120.168 3.98235 119.409 3.223 119.409 2.25442V2.22742C119.409 1.2622 120.168 0.502856 121.136 0.502856H121.163C122.127 0.502856 122.886 1.2622 122.886 2.22742V2.25442ZM122.127 1.86968C122.127 1.38032 121.807 1.10696 121.254 1.10696H120.256V3.38162H120.785V2.6054H121.159L121.588 3.38162H122.195L121.699 2.51766C121.959 2.41641 122.124 2.15992 122.124 1.86968H122.127ZM121.2 2.17679H120.788V1.55919H121.19C121.426 1.55919 121.577 1.68069 121.577 1.86968C121.577 2.05867 121.432 2.18017 121.196 2.18017L121.2 2.17679Z" fill="var(--fill-0, white)"/>
<path id="Vector_10" d="M33.6753 3.89789C33.1762 6.14893 32.6063 8.38647 31.9352 10.5936C31.308 12.6557 30.6875 14.7414 29.6894 16.6617C29.2948 17.4176 28.8295 18.1601 28.1449 18.6663C27.5953 19.0747 26.8804 19.3143 26.2026 19.1287C25.518 18.9431 24.9987 18.3795 24.6278 17.7754C22.6247 14.5186 21.6232 10.7826 19.7786 7.44825C19.2357 6.46954 18.3994 5.24446 17.2158 5.08584C14.8317 4.76523 13.5975 7.79249 12.8185 9.5373C11.5674 12.3452 10.6435 15.2948 9.44973 18.1264C8.34703 20.7419 7.1398 23.3169 5.82803 25.8312C4.23638 28.8855 2.48623 31.8553 0.553987 34.7071C0.398868 34.9366 0.240377 35.1627 0.0852581 35.3922C-0.44417 36.1786 1.61284 33.7183 2.92461 31.9735C9.04507 23.8299 12.859 14.549 15.007 11.2382C15.297 10.7928 15.6005 10.3473 16.0086 10.0064C18.3488 8.0591 19.8629 12.3891 20.534 13.9246C21.6131 16.3917 22.5269 18.9802 24.1793 21.1401C24.7053 21.8286 25.3595 22.4968 26.206 22.6656C27.1198 22.8478 28.0674 22.3854 28.7115 21.7071C30.5021 19.8172 31.2001 16.7123 31.8442 14.279C32.377 12.2642 32.7816 10.219 33.1087 8.16035C33.2639 7.18501 33.5674 4.51211 33.6753 3.90126V3.89789Z" fill="var(--fill-0, white)"/>
<path id="Vector_11" d="M115.73 3.45572C116.205 3.74596 116.616 4.10707 116.964 4.52893C116.387 3.4861 115.537 2.69638 114.438 2.26102C114.003 2.0889 113.544 1.97753 113.072 1.9269C109.795 1.17093 105.104 3.56709 101.765 8.27167C97.4188 14.3937 97.1355 21.6834 101.57 24.0897C105.67 26.3137 110.641 24.3293 114.04 18.403C110.948 21.9298 106.122 24.1538 102.875 22.0614C99.1318 19.6484 100.218 12.6489 104.719 7.45832C108.125 3.24648 112.819 1.68391 115.73 3.4591V3.45572Z" fill="var(--fill-0, white)"/>
<path id="Vector_12" d="M71.9559 7.07711C69.8348 5.5213 67.0326 5.18718 64.7159 6.36501C62.8713 7.27961 61.192 8.90967 60.7637 10.9481C60.4602 12.4533 61.6 12.7334 62.8916 12.9865C65.5522 13.4624 68.3949 13.3274 71.0016 14.6976C73.2609 15.8282 74.5794 18.7947 73.4295 21.1503C72.4921 23.2326 70.5362 24.6265 68.6512 25.6355C61.7585 29.1353 51.4735 29.8103 45.3463 24.5117C49.8076 27.4951 55.4324 27.6672 60.5243 26.6581C64.2 25.8414 68.0442 24.4915 70.6239 21.7308C72.283 19.9523 72.0368 17.7451 69.936 16.6786C67.009 15.1937 63.2524 15.9767 60.2478 14.2588C57.7558 12.6997 59.0068 9.29778 60.6626 7.61034C63.6435 4.36034 68.8535 3.65499 71.9559 7.08049V7.07711Z" fill="var(--fill-0, white)"/>
</g>
</svg>
