<svg preserveAspectRatio="none" width="100%" height="100%" overflow="visible" style="display: block;" viewBox="0 0 40 40" fill="none" xmlns="http://www.w3.org/2000/svg">
<g id="Social / Linkedin">
<rect x="0.5" y="0.5" width="39" height="39" rx="19.5" stroke="var(--stroke-0, white)"/>
<path id="Shape" d="M15.6329 26.4152H12.5899V16.9894H15.6329V26.4152ZM23.9434 16.8976C26.1056 16.8976 27.8046 18.2529 27.8048 21.172V26.4133H24.3546V21.5363C24.3546 20.2596 23.8148 19.3879 22.628 19.3879C21.7207 19.388 21.2155 19.9755 20.9805 20.5422C20.8925 20.7456 20.9063 21.0293 20.9063 21.3127V26.4133H17.4884C17.4886 26.3586 17.5323 17.7703 17.4884 16.9875H20.9063V18.467C21.1084 17.8201 22.2007 16.8976 23.9434 16.8976ZM14.0538 12.5383C15.1762 12.5383 15.8667 13.2419 15.8887 14.172C15.8887 15.0852 15.1765 15.8086 14.0333 15.8088H14.0108C12.9096 15.8088 12.1955 15.0882 12.1954 14.175C12.1954 13.2439 12.9305 12.5383 14.0538 12.5383Z" fill="var(--fill-0, white)"/>
</g>
</svg>
