<svg preserveAspectRatio="none" width="100%" height="100%" overflow="visible" style="display: block;" viewBox="0 0 14.9892 15.3056" fill="none" xmlns="http://www.w3.org/2000/svg">
<g id="Icon">
<path id="Shape-path" d="M7.42623 0C5.40932 0 5.1565 0.00854842 4.3644 0.0446812C3.57391 0.0807396 3.03403 0.206284 2.56183 0.389877C2.07352 0.579634 1.65934 0.833561 1.24637 1.2464C0.833594 1.65929 0.579568 2.07343 0.389803 2.56177C0.206284 3.03413 0.0807809 3.57396 0.0447224 4.3644C0.00845765 5.15649 0 5.40938 0 7.42623C0 9.44311 0.00845765 9.69593 0.0447224 10.4881C0.0807809 11.2785 0.206284 11.8183 0.389803 12.2907C0.579568 12.7791 0.833594 13.1932 1.24637 13.6061C1.65934 14.0189 2.07352 14.2728 2.56183 14.4626C3.03403 14.6462 3.57391 14.7717 4.3644 14.8077C5.1565 14.8439 5.40932 14.8525 7.42623 14.8525C9.44311 14.8525 9.69593 14.8439 10.4881 14.8077C11.2785 14.7717 11.8183 14.6462 12.2907 14.4626C12.779 14.2728 13.1931 14.0189 13.6061 13.6061C14.0188 13.1932 14.2729 12.7791 14.4627 12.2907C14.6462 11.8183 14.7717 11.2785 14.8077 10.4881C14.8438 9.69593 14.8525 9.44311 14.8525 7.42623C14.8525 5.40938 14.8438 5.15649 14.8077 4.3644C14.7717 3.57396 14.6462 3.03413 14.4627 2.56177C14.2729 2.07343 14.0188 1.65929 13.6061 1.2464C13.1931 0.833561 12.779 0.579634 12.2907 0.389877C11.8183 0.206284 11.2785 0.0807396 10.4881 0.0446812C9.69593 0.00854842 9.44311 0 7.42623 0Z" fill="var(--fill-0, white)"/>
<path id="Shape-path_2" d="M3.61328 7.43065C3.61328 5.32452 5.32056 3.61719 7.42672 3.61719C9.53288 3.61719 11.2402 5.32452 11.2402 7.43065C11.2402 9.53681 9.53288 11.2441 7.42672 11.2441C5.32056 11.2441 3.61328 9.53681 3.61328 7.43065Z" fill="var(--fill-0, #5E6B7A)"/>
<path id="Shape-path_3" d="M7.42463 9.90394C6.05738 9.90394 4.94922 8.7957 4.94922 7.42853C4.94922 6.06136 6.05738 4.95312 7.42463 4.95312C8.79163 4.95312 9.90004 6.06136 9.90004 7.42853C9.90004 8.7957 8.79163 9.90394 7.42463 9.90394Z" fill="var(--fill-0, white)"/>
<path id="Shape-path_4" d="M11.6517 4.65367C12.2252 4.65367 12.69 4.14972 12.69 3.52802C12.69 2.90635 12.2252 2.40234 11.6517 2.40234C11.0783 2.40234 10.6133 2.90635 10.6133 3.52802C10.6133 4.14972 11.0783 4.65367 11.6517 4.65367Z" fill="var(--fill-0, #5E6B7A)"/>
</g>
</svg>
