<svg preserveAspectRatio="none" width="100%" height="100%" overflow="visible" style="display: block;" viewBox="0 0 24 24" fill="none" xmlns="http://www.w3.org/2000/svg">
<g id="Group">
<g id="Rectangle">
</g>
<path id="Path" d="M12.001 11.069C12.0386 11.069 12.069 11.0386 12.069 11.001V11C12.069 10.9619 12.0381 10.931 12 10.931C11.9619 10.931 11.931 10.9619 11.931 11C11.931 11.0381 11.9619 11.069 12 11.069H12.001" stroke="var(--stroke-0, #0015FF)" stroke-width="1.5" stroke-linecap="round" stroke-linejoin="round"/>
<path id="Path_2" fill-rule="evenodd" clip-rule="evenodd" d="M8.5 11.069C8.53811 11.069 8.569 11.0381 8.569 11C8.569 10.9619 8.53811 10.931 8.5 10.931C8.46189 10.931 8.431 10.9619 8.431 11C8.431 11.0381 8.46189 11.069 8.5 11.069Z" stroke="var(--stroke-1, #0015FF)" stroke-width="1.5" stroke-linecap="round" stroke-linejoin="round"/>
<path id="Path_3" d="M15.501 11.069C15.5386 11.069 15.569 11.0386 15.569 11.001V11C15.569 10.9619 15.5381 10.931 15.5 10.931C15.4619 10.931 15.431 10.9619 15.431 11C15.431 11.0381 15.4619 11.069 15.5 11.069H15.501" stroke="var(--stroke-0, #0015FF)" stroke-width="1.5" stroke-linecap="round" stroke-linejoin="round"/>
<path id="Path_4" fill-rule="evenodd" clip-rule="evenodd" d="M10.5409 3.5H14.0364C17.8823 3.50001 21 6.61773 21 10.4636V10.5359C21 12.3828 20.2663 14.154 18.9604 15.4599C17.6545 16.7659 15.8832 17.4995 14.0364 17.4995H13.0131C13.0059 17.4995 13 17.5054 13 17.5126V19.775C13 20.031 12.8648 20.2679 12.6445 20.3982C12.4242 20.5285 12.1514 20.5327 11.9271 20.4094L6.90686 17.6483C4.49715 16.323 3 13.791 3 11.0409V11.0409C2.99999 9.0409 3.79447 7.12285 5.20866 5.70866C6.62284 4.29448 8.54089 3.5 10.5409 3.5Z" stroke="var(--stroke-0, #0015FF)" stroke-width="1.5" stroke-linecap="round" stroke-linejoin="round"/>
</g>
</svg>
