<svg width="1064" height="288" viewBox="0 0 1064 288" fill="none" xmlns="http://www.w3.org/2000/svg">
<g clip-path="url(#clip0_7348_416)">
<path d="M101.527 212.968C106.304 206.099 101.736 196.809 105.428 189.898C106.45 188.145 107.994 187.059 110.101 185.806C113.209 184.157 116.776 181.882 119.488 178.98C119.592 184.971 121.345 190.566 124.703 195.452C129.188 201.151 135.634 204.993 141.35 208.897C142.226 209.439 143.081 210.003 143.957 210.588C144.187 211.757 144.124 212.926 143.582 214.095C141.016 218.751 134.174 219.899 129.167 219.627C125.412 219.565 121.887 218.521 118.007 218.437C112.792 218.145 106.429 220.88 106.993 226.997H107.389C108.87 216.099 121.887 221.799 128.917 222.592C132.859 223.093 137.052 222.989 140.849 221.611C144.812 220.4 147.503 216.976 147.775 213.26C156.995 219.982 165.026 228.375 164.984 239.586C163.524 242.759 160.082 244.304 156.265 245.202C144.395 247.77 129.605 251.507 130.106 267.185C130.544 276.121 127.019 283.783 117.84 286.246L117.903 286.643C125.558 285.536 131.316 278.751 132.15 271.152C132.192 270.338 132.401 268.083 132.442 267.227C132.588 258.167 138.992 253.156 147.441 251.611C152.864 250.15 159.832 249.44 164.233 245.411C164.212 245.515 164.192 245.619 164.171 245.724C162.564 251.465 161.876 257.331 162.356 262.864C159.394 272.614 152.698 281.278 142.977 285.056C148.171 284.2 153.949 280.046 157.725 275.829C160.166 273.282 161.939 270.108 162.898 266.705C164.776 276.371 170.658 284.493 182.152 287.937L182.361 287.144C170.471 283.01 163.795 270.63 165.568 258.542C166.465 250.087 170.804 242.216 169.115 233.448C167.508 223.907 161.688 216.976 154.763 210.963C158.747 211.882 162.877 212.258 166.862 212.195C171.075 212.132 174.935 211.945 178.669 212.738C188.118 214.366 187.576 223.594 192.29 230.275C197.505 237.665 207.644 237.811 215.362 235.097L215.237 234.701C207.852 236.726 198.298 236.183 193.959 229.085C190.496 223.824 190.434 215.118 184.092 211.506C182.882 210.859 181.652 210.337 180.379 209.92C188.223 209.126 196.504 206.015 199.654 200.024C193.897 207.477 183.154 207.414 174.371 208.604C168.009 207.79 161.334 208.27 155.201 206.892C152.218 206.433 149.381 205.556 146.627 204.408C142.852 201.527 139.076 198.729 135.759 195.786C133.715 193.865 131.942 192.028 130.627 189.669C127.019 182.132 127.039 174.282 130.878 166.746C133.402 161.422 138.075 154.031 136.218 147.121C132.734 134.01 119.217 131.025 108.328 136.954L108.641 137.706C117.777 135.033 129.23 137.455 130.398 148.165C130.648 153.927 126.81 157.643 123.931 163.155C122.617 165.43 121.407 168.019 120.594 170.796C118.591 173.218 116.38 175.201 113.793 176.62C110.497 178.52 106.054 180.023 103.113 183.155C99.629 186.537 98.7737 192.174 99.0658 196.496C99.4413 203.218 103.259 214.095 94.0176 216.183V216.788C96.8754 217.101 99.8585 215.473 101.506 212.884L101.527 212.968Z" fill="url(#paint0_radial_7348_416)"/>
<path d="M64.9793 115.868C72.9688 118.29 80.395 111.087 88.1133 112.465C90.0951 112.904 91.6179 114.031 93.4327 115.659C95.9568 118.102 99.2319 120.795 102.82 122.486C97.1458 124.428 92.3688 127.831 88.76 132.549C84.734 138.582 83.0651 145.91 81.1251 152.549C80.8748 153.551 80.6036 154.553 80.3116 155.555C79.2686 156.14 78.1213 156.432 76.8488 156.286C71.6128 155.284 68.4212 149.125 67.1279 144.261C66.0223 140.67 65.9388 136.996 64.8124 133.28C63.4773 128.227 58.9089 123.008 53.2766 125.43L53.4227 125.806C64.2074 123.864 62.8307 138.019 64.2283 144.95C64.9793 148.854 66.3769 152.821 68.8384 156.015C71.2165 159.418 75.3051 160.921 78.914 160.023C75.3886 170.879 69.8814 181.109 59.201 184.533C55.7173 184.115 53.2141 181.318 51.1698 177.957C45.0577 167.455 36.943 154.512 22.1948 159.856C13.8507 163.029 5.46485 162.048 0.270641 154.073L-0.0839844 154.261C3.3371 161.192 11.5769 164.595 19.024 163.05C19.8167 162.842 22.0279 162.341 22.8415 162.132C31.4985 159.46 38.2364 164.032 42.325 171.589C45.3915 176.307 48.2285 182.717 53.4018 185.66C53.2975 185.66 53.1932 185.702 53.0889 185.702C47.1437 185.932 41.3446 187.101 36.2338 189.272C26.054 189.46 15.749 185.765 9.15713 177.685C11.5769 182.362 17.3135 186.579 22.466 188.855C25.6576 190.399 29.2039 191.109 32.7293 190.963C24.114 195.723 18.2314 203.844 18.5025 215.849L19.3161 215.807C19.5664 203.218 29.2664 193.03 41.3237 190.984C49.647 189.209 58.45 190.921 66.2726 186.6C74.8253 182.111 79.6232 174.428 83.2112 165.994C83.5658 170.065 84.5045 174.115 85.777 177.894C87.1329 181.882 88.5097 185.493 88.906 189.293C90.2828 198.792 81.3546 201.13 76.4524 207.686C71.0496 214.951 74.0326 224.617 78.9974 231.152L79.3312 230.901C75.1174 224.492 72.6767 215.222 78.0795 208.917C82.0013 204.011 90.2619 201.235 91.743 194.095C91.9933 192.738 92.0977 191.402 92.0977 190.065C95.2893 197.289 100.796 204.199 107.451 205.347C98.5852 202.174 95.331 191.923 91.4927 183.928C90.3037 177.623 87.7796 171.422 87.1955 165.138C86.6948 162.153 86.674 159.188 86.9034 156.203C88.468 151.714 89.9699 147.267 91.743 143.196C92.9321 140.649 94.1211 138.394 95.9568 136.432C102.006 130.67 109.474 128.269 117.818 129.584C123.659 130.336 132.129 132.507 138.115 128.603C149.505 121.233 148.17 107.455 139.158 98.9158L138.554 99.4586C143.915 107.35 145.145 118.979 135.341 123.405C129.938 125.43 125.224 122.904 119.112 121.881C116.525 121.338 113.709 120.983 110.83 121.066C107.91 119.897 105.344 118.415 103.195 116.39C100.379 113.843 97.5839 110.085 93.683 108.227C89.3858 105.951 83.7744 106.87 79.7692 108.498C73.5111 110.941 64.3535 117.935 59.493 109.772L58.9089 109.939C59.493 112.757 61.9754 115.116 64.9375 115.868H64.9793Z" fill="url(#paint1_radial_7348_416)"/>
<path d="M145.96 51.0864C146.127 59.4581 155.284 64.2807 156.348 72.047C156.536 74.0721 155.952 75.8466 154.951 78.1014C153.407 81.2538 151.863 85.2205 151.363 89.1454C147.775 84.3436 143.06 80.8572 137.47 78.8738C130.502 76.9114 123.013 77.5794 116.088 77.7882C115.066 77.8508 114.023 77.9135 112.98 77.9552C112.103 77.141 111.457 76.1598 111.206 74.8863C110.56 69.6044 115.399 64.6565 119.613 61.9216C122.68 59.7712 126.142 58.5395 129.334 56.3265C133.715 53.4872 137.261 47.5372 133.214 42.9234L132.901 43.1948C138.075 52.8609 124.202 55.909 118.049 59.3955C114.565 61.3162 111.227 63.8632 108.974 67.2035C106.471 70.523 106.304 74.8654 108.265 78.0387C96.8546 78.0387 85.444 75.951 78.873 66.8695C78.1846 63.4456 80.0829 60.1679 82.6279 57.1825C90.7217 48.1218 100.505 36.3889 90.8677 24.0087C85.2771 17.0358 83.6083 8.76842 89.5952 1.35704L89.3032 1.06476C83.7752 6.47193 83.0868 15.3447 86.8625 21.9836C87.3006 22.6726 88.4479 24.6142 88.9277 25.324C94.1428 32.7354 91.8898 40.5643 85.9655 46.7857C82.4401 51.149 77.2251 55.8463 76.0152 61.6711C75.9734 61.5667 75.9109 61.4832 75.89 61.3788C73.8248 55.7837 70.9253 50.6479 67.2956 46.4308C63.9788 36.7855 64.2917 25.8459 69.9448 17.0775C66.2525 20.8145 64.0205 27.5787 63.4364 33.2155C62.9566 36.7229 63.3947 40.3346 64.6046 43.6332C57.4078 36.9108 47.8955 33.8001 36.5684 37.7876L36.8604 38.5392C48.8968 34.8857 61.5798 40.961 67.2538 51.8171C71.5093 59.1867 72.5941 68.1012 79.1234 74.1974C86.0281 80.9615 94.8103 83.1536 103.947 83.947C100.192 85.5545 96.6251 87.684 93.4335 90.064C90.0541 92.5901 87.0711 95.0118 83.5666 96.5568C74.9513 100.795 69.9865 93.0076 62.2474 90.398C53.6738 87.4961 45.3923 93.3208 40.7404 100.064L41.0742 100.294C45.8512 94.302 53.9241 89.1245 61.5798 92.3187C67.4624 94.5317 72.6358 101.546 79.8743 100.732C81.2302 100.544 82.5444 100.231 83.8169 99.8345C77.9343 105.096 73.0739 112.465 74.0334 119.167C74.3046 109.751 83.0451 103.488 89.4492 97.3501C95.0815 94.2811 100.192 89.9387 105.971 87.4543C108.662 86.0556 111.478 85.1161 114.356 84.4063C119.113 84.5107 123.806 84.5524 128.228 84.9908C131.003 85.3457 133.527 85.7842 135.968 86.9115C143.31 90.8782 147.9 97.2457 149.235 105.617C150.32 111.4 150.883 120.148 156.432 124.636C166.945 133.196 179.649 127.664 184.948 116.453L184.238 116.035C178.397 123.572 167.738 128.353 160.499 120.378C156.911 115.868 157.829 110.586 156.932 104.448C156.661 101.818 156.119 99.0203 155.159 96.3062C155.368 93.1747 155.994 90.2519 157.245 87.6005C158.789 84.1349 161.501 80.2935 162.064 76.0345C162.898 71.2537 160.291 66.1805 157.495 62.8611C153.24 57.6627 143.769 51.1072 150.007 43.9673L149.673 43.4662C147.17 44.9067 145.709 47.9965 145.897 51.0446L145.96 51.0864Z" fill="url(#paint2_radial_7348_416)"/>
<path d="M232.55 108.164C224.665 110.899 222.892 121.108 215.841 124.532C213.984 125.346 212.086 125.325 209.645 125.075C206.162 124.574 201.927 124.323 198.047 125.075C201.489 120.169 203.366 114.615 203.512 108.665C203.22 101.421 200.279 94.5108 197.943 87.9762C197.567 87.0159 197.192 86.0555 196.837 85.0743C197.338 83.9887 198.089 83.0701 199.194 82.4438C204.013 80.1891 210.229 83.2789 214.109 86.4522C217.113 88.7069 219.345 91.6297 222.433 93.9888C226.48 97.2874 233.238 98.8323 236.367 93.5504L236.013 93.3416C228.44 101.254 221.244 88.9992 216.029 84.2183C213.129 81.4834 209.666 79.1034 205.807 77.997C201.885 76.6399 197.692 77.8299 195.293 80.6692C191.768 69.8131 190.224 58.3098 196.837 49.2492C199.883 47.5372 203.575 48.3306 207.205 49.8337C218.302 54.7398 232.487 60.4184 241.27 47.4328C246.172 39.9588 253.515 35.8252 262.401 39.2281L262.589 38.8732C255.747 35.2824 247.09 37.3701 241.958 43.0069C241.436 43.6541 239.934 45.3451 239.413 45.9923C233.968 53.2367 225.854 53.5081 218.094 49.792C212.858 47.7878 206.787 44.2595 200.863 44.9276C200.947 44.865 201.009 44.7814 201.093 44.7188C205.765 41.0236 209.77 36.6811 212.628 31.9211C220.764 25.7833 231.257 22.7143 241.332 25.3657C236.639 23.0066 229.525 22.9648 223.997 24.1548C220.514 24.7812 217.218 26.3052 214.443 28.4973C218.615 19.5827 218.615 9.56173 211.335 0L210.709 0.521928C217.885 10.8561 216.029 24.802 207.497 33.5495C201.802 39.8753 193.666 43.675 189.891 51.7753C185.593 60.4393 186.24 69.4582 188.305 78.4145C185.614 75.3247 182.485 72.6107 179.231 70.2933C175.789 67.8715 172.556 65.763 170.011 62.9028C163.315 56.0133 169.176 48.8734 169.281 40.6895C169.385 31.6497 161.291 25.5536 153.448 23.2154L153.323 23.612C160.498 26.3052 167.904 32.3804 167.236 40.6686C166.944 46.9527 161.896 54.0509 164.9 60.6898C165.484 61.9216 166.193 63.0698 166.965 64.1554C160.144 60.1888 151.633 57.8296 145.562 60.8151C154.595 58.1637 163.252 64.5521 171.054 68.7484C175.706 73.1535 181.4 76.6817 185.552 81.4208C187.7 83.5503 189.473 85.9303 191.038 88.4773C192.415 93.0285 193.812 97.5171 194.772 101.86C195.293 104.615 195.648 107.141 195.335 109.814C193.833 118.018 189.202 124.365 181.672 128.206C176.498 131.025 168.384 134.261 165.839 140.942C160.937 153.593 170.136 163.969 182.423 165.556L182.61 164.762C173.64 161.526 165.818 152.862 171.137 143.509C174.308 138.708 179.606 137.956 185.176 135.2C187.596 134.136 190.078 132.737 192.373 130.983C195.419 130.211 198.381 129.898 201.28 130.273C205.056 130.67 209.541 132.069 213.755 131.275C218.553 130.586 222.558 126.536 224.852 122.862C228.482 117.204 231.778 106.16 240.498 109.897L240.873 109.417C238.725 107.475 235.345 107.037 232.508 108.164H232.55Z" fill="url(#paint3_radial_7348_416)"/>
<path d="M205.077 208.187C200.028 201.527 189.786 202.988 184.362 197.352C183.006 195.827 182.443 194.032 181.922 191.631C181.317 188.166 180.253 184.053 178.334 180.587C184.049 182.341 189.932 182.403 195.606 180.712C202.406 178.207 208.06 173.259 213.546 169.021C214.339 168.374 215.152 167.706 215.966 167.059C217.155 167.205 218.239 167.622 219.199 168.499C222.829 172.382 221.806 179.251 220.013 183.928C218.803 187.477 216.717 190.504 215.423 194.178C213.546 199.043 214.172 205.953 220.138 207.31L220.242 206.913C210.375 202.153 219.804 191.506 222.745 185.055C224.435 181.443 225.624 177.414 225.499 173.385C225.561 169.23 223.162 165.618 219.7 164.22C228.92 157.518 239.392 152.487 250.03 155.973C252.596 158.353 252.993 162.111 252.68 166.015C251.449 178.103 250.427 193.343 265.488 197.706C274.103 200.045 280.32 205.765 279.819 215.285L280.215 215.348C281.509 207.727 276.857 200.128 269.91 196.997C269.138 196.704 267.073 195.807 266.281 195.514C257.707 192.571 254.933 184.93 256.08 176.412C256.372 170.796 257.832 163.948 255.392 158.499C255.475 158.562 255.579 158.604 255.663 158.645C260.607 161.944 265.989 164.407 271.391 165.681C279.736 171.526 285.91 180.566 286.473 190.984C287.266 185.786 285.097 179.001 282.26 174.115C280.591 171.005 278.129 168.332 275.188 166.37C284.951 167.581 294.484 164.491 301.326 154.616L300.638 154.178C293.044 164.219 279.214 166.746 268.262 161.318C260.502 157.852 254.369 151.297 245.504 150.19C235.95 148.77 227.564 152.173 219.7 156.913C221.806 153.405 223.434 149.585 224.602 145.764C225.853 141.735 226.855 138.019 228.774 134.699C233.238 126.202 241.832 129.584 249.655 127.142C258.291 124.449 261.566 114.866 261.378 106.661H260.961C260.607 114.323 257.123 123.259 249.05 125.179C242.98 126.849 234.677 124.219 229.295 129.146C228.294 130.085 227.439 131.108 226.646 132.194C228.315 124.49 227.919 115.638 223.204 110.795C228.503 118.561 225.123 128.77 223.538 137.518C220.784 143.322 219.199 149.814 215.986 155.242C214.631 157.956 212.92 160.378 210.98 162.633C207.079 165.347 203.262 168.061 199.423 170.316C196.962 171.673 194.667 172.8 192.039 173.301C183.778 174.408 176.31 171.965 170.323 165.973C166.047 161.923 160.456 155.201 153.343 154.825C139.805 154.073 132.796 166.036 135.069 178.228L135.883 178.165C136.175 168.645 142.016 158.499 152.55 160.67C158.099 162.215 160.456 167.017 164.795 171.464C166.548 173.426 168.634 175.368 171.012 176.996C172.701 179.648 173.89 182.362 174.433 185.264C175.225 188.98 175.267 193.677 177.332 197.456C179.46 201.819 184.55 204.366 188.764 205.41C195.251 207.122 206.787 206.851 205.911 216.308L206.495 216.517C207.684 213.886 207.058 210.525 205.118 208.166L205.077 208.187Z" fill="url(#paint4_radial_7348_416)"/>
<path d="M530.456 132.403H510.701C510.638 132.799 510.618 133.342 510.618 134.073C510.618 137.518 511.473 140.232 513.204 142.194C514.936 144.177 517.543 145.159 521.027 145.159C525.971 145.159 530.769 143.321 535.441 139.647L538.362 144.741C532.855 149.084 526.784 151.255 520.109 151.255C515.332 151.255 511.41 149.814 508.365 146.954C505.319 144.094 503.775 140.044 503.775 134.824C503.775 131.776 504.297 128.687 505.319 125.618C506.341 122.528 507.843 119.605 509.825 116.87C511.786 114.114 514.456 111.881 517.814 110.148C521.173 108.415 524.969 107.559 529.183 107.559C533.188 107.559 536.547 108.624 539.259 110.732C541.971 112.841 543.347 115.847 543.347 119.73C543.347 123.238 542.242 126.223 540.01 128.687C537.778 131.171 534.586 132.403 530.435 132.403H530.456ZM528.37 112.966C524.156 112.966 520.589 114.323 517.71 117.016C514.81 119.709 512.787 123.092 511.619 127.142H530.289C532.396 127.142 534.044 126.39 535.254 124.887C536.443 123.384 537.048 121.714 537.048 119.876C537.048 117.81 536.276 116.16 534.753 114.866C533.23 113.592 531.102 112.945 528.37 112.945V112.966Z" fill="white"/>
<path d="M582.459 108.624H589.385L582.042 150.399H575.284L576.452 143.802C570.173 148.854 564.248 151.401 558.7 151.401C554.653 151.401 551.732 150.127 549.959 147.601C548.186 145.075 547.644 141.714 548.374 137.559L553.464 108.624H560.306L555.299 137.142C554.799 139.919 554.945 141.944 555.758 143.238C556.572 144.512 558.095 145.159 560.389 145.159C565.229 145.159 570.924 142.695 577.474 137.726L582.48 108.624H582.459Z" fill="white"/>
<path d="M620.613 107.538C622.449 107.538 624.118 107.872 625.62 108.54L623.617 114.553C622.22 114.114 620.885 113.885 619.612 113.885C614.939 113.885 610.204 116.035 605.365 120.315L600.108 150.336H593.266L600.608 108.645H607.284L606.366 113.906C610.475 109.688 615.232 107.559 620.613 107.559V107.538Z" fill="white"/>
<path d="M639.534 151.234C634.256 151.234 630.147 149.731 627.206 146.724C624.264 143.718 622.783 139.626 622.783 134.47C622.783 132.737 622.95 130.941 623.284 129.042C624.515 122.528 627.226 117.329 631.44 113.405C635.654 109.48 640.744 107.517 646.689 107.517C652.029 107.517 656.139 108.999 659.059 111.985C661.98 114.949 663.44 119.041 663.44 124.198C663.44 125.931 663.273 127.747 662.939 129.71C661.834 136.223 659.184 141.422 654.991 145.347C650.799 149.271 645.646 151.234 639.534 151.234ZM639.951 145.138C644.29 145.138 647.836 143.739 650.611 140.962C653.385 138.186 655.242 134.198 656.201 129.042C656.535 127.204 656.702 125.534 656.702 124.031C656.702 117.079 653.26 113.613 646.376 113.613C642.037 113.613 638.491 114.991 635.717 117.747C632.942 120.503 631.044 124.49 630.043 129.71C629.709 131.547 629.542 133.217 629.542 134.72C629.542 141.672 633.005 145.138 639.951 145.138Z" fill="white"/>
<path d="M800.409 108.624H807.334L799.992 150.399H793.233L794.401 143.802C788.122 148.854 782.198 151.401 776.649 151.401C772.602 151.401 769.682 150.127 767.908 147.601C766.135 145.075 765.593 141.714 766.323 137.559L771.413 108.624H778.255L773.249 137.142C772.748 139.919 772.894 141.944 773.708 143.238C774.521 144.512 776.044 145.159 778.339 145.159C783.178 145.159 788.873 142.695 795.423 137.726L800.43 108.624H800.409Z" fill="white"/>
<path d="M838.563 107.538C840.398 107.538 842.067 107.872 843.569 108.54L841.567 114.553C840.169 114.114 838.834 113.885 837.561 113.885C832.889 113.885 828.153 116.035 823.314 120.315L818.057 150.336H811.215L818.558 108.645H825.233L824.315 113.906C828.425 109.688 833.181 107.559 838.563 107.559V107.538Z" fill="white"/>
<path d="M864.742 107.538C870.416 107.538 875.193 109.229 879.073 112.632L873.065 144.825C871.834 151.61 869.206 156.996 865.159 161.004C861.112 165.013 855.939 167.017 849.66 167.017C847.323 167.017 845.091 166.662 842.943 165.973C840.794 165.284 839.313 164.533 838.479 163.76L840.314 158.332C843.36 160.232 846.531 161.171 849.806 161.171C854.082 161.171 857.545 159.773 860.173 156.996C862.802 154.219 864.742 150.628 865.972 146.244C861.8 149.689 857.524 151.422 853.143 151.422C848.429 151.422 844.82 149.96 842.358 147.038C839.876 144.115 838.645 140.294 838.645 135.576C838.645 128.019 841.065 121.463 845.905 115.889C850.744 110.336 857.023 107.559 864.742 107.559V107.538ZM845.571 135.221C845.571 141.944 848.45 145.305 854.228 145.305C858.838 145.305 863.261 143.196 867.474 138.958L871.813 115.597C869.581 114.261 867.036 113.592 864.137 113.592C858.692 113.592 854.228 115.764 850.765 120.106C847.302 124.449 845.55 129.48 845.55 135.2L845.571 135.221Z" fill="white"/>
<path d="M883.078 150.315L890.338 108.624H897.263L889.92 150.315H883.078ZM895.156 102.444C892.486 102.444 891.151 101.108 891.151 98.4357C891.151 96.8699 891.631 95.5964 892.611 94.5943C893.592 93.5922 894.822 93.0911 896.324 93.0911C897.597 93.0911 898.619 93.446 899.37 94.1767C900.121 94.9074 900.476 95.8469 900.413 97.016C900.351 98.6862 899.85 100.001 898.911 100.983C897.972 101.964 896.721 102.444 895.156 102.444Z" fill="white"/>
<path d="M1053.57 31.0026C1055.18 30.3762 1056.2 28.7896 1056.2 26.9942C1056.2 23.967 1054.22 22.2759 1050.79 22.2759H1044.62V36.3471H1047.9V31.5454H1050.21L1052.86 36.3471H1056.61L1053.55 31.0026H1053.57ZM1050.48 28.894H1047.94V25.0735H1050.42C1051.88 25.0735 1052.82 25.825 1052.82 26.9942C1052.82 28.1633 1051.92 28.9148 1050.46 28.9148L1050.48 28.894ZM1053.57 31.0026C1055.18 30.3762 1056.2 28.7896 1056.2 26.9942C1056.2 23.967 1054.22 22.2759 1050.79 22.2759H1044.62V36.3471H1047.9V31.5454H1050.21L1052.86 36.3471H1056.61L1053.55 31.0026H1053.57ZM1050.48 28.894H1047.94V25.0735H1050.42C1051.88 25.0735 1052.82 25.825 1052.82 26.9942C1052.82 28.1633 1051.92 28.9148 1050.46 28.9148L1050.48 28.894ZM1050.25 15.4491H1050.09C1042.35 15.4491 1036.3 21.5035 1036.3 29.228V29.395C1036.3 37.1404 1042.35 43.1948 1050.09 43.1948H1050.25C1057.95 43.1948 1064.02 37.1404 1064.02 29.395V29.228C1064.02 21.5035 1057.97 15.4491 1050.25 15.4491ZM1060.91 29.395C1060.91 35.3868 1056.22 40.0841 1050.25 40.0841H1050.09C1044.1 40.0841 1039.41 35.3868 1039.41 29.395V29.228C1039.41 23.2571 1044.1 18.5598 1050.09 18.5598H1050.25C1056.22 18.5598 1060.91 23.2571 1060.91 29.228V29.395ZM1056.22 27.015C1056.22 23.9878 1054.24 22.2968 1050.82 22.2968H1044.64V36.368H1047.92V31.5662H1050.23L1052.88 36.368H1056.64L1053.57 31.0234C1055.18 30.3971 1056.2 28.8105 1056.2 27.015H1056.22ZM1050.48 28.9148H1047.94V25.0943H1050.42C1051.88 25.0943 1052.82 25.8459 1052.82 27.015C1052.82 28.1841 1051.92 28.9357 1050.46 28.9357L1050.48 28.9148Z" fill="white"/>
<path d="M509.053 39.5622C505.966 53.4872 502.44 67.3288 498.289 80.9824C494.409 93.7383 490.571 106.64 484.396 118.519C481.956 123.196 479.077 127.789 474.842 130.921C471.442 133.447 467.02 134.929 462.827 133.781C458.592 132.632 455.38 129.146 453.085 125.409C440.694 105.263 434.498 82.1515 423.088 61.5249C419.729 55.4706 414.556 47.8922 407.234 46.9109C392.486 44.9276 384.851 63.6544 380.032 74.4479C372.293 91.8176 366.577 110.064 359.193 127.58C352.371 143.76 344.903 159.689 336.789 175.243C326.943 194.136 316.116 212.508 304.163 230.15C303.204 231.569 302.223 232.968 301.264 234.388C297.989 239.252 310.713 224.033 318.828 213.239C356.69 162.863 380.283 105.45 393.571 84.97C395.365 82.2142 397.242 79.4584 399.766 77.3498C414.243 65.3037 423.609 92.0891 427.761 101.588C434.436 116.849 440.089 132.862 450.311 146.223C453.565 150.482 457.612 154.616 462.848 155.66C468.501 156.787 474.362 153.927 478.347 149.731C489.424 138.04 493.742 118.833 497.726 103.78C501.022 91.3166 503.525 78.6651 505.549 65.93C506.508 59.8965 508.386 43.3618 509.053 39.5831V39.5622Z" fill="white"/>
<path d="M1016.65 36.8273C1019.59 38.6227 1022.13 40.8565 1024.28 43.4662C1020.71 37.0152 1015.46 32.1299 1008.66 29.4368C1005.97 28.372 1003.13 27.6831 1000.21 27.3699C979.932 22.6934 950.915 37.5162 930.264 66.6189C903.375 104.49 901.622 149.585 929.054 164.47C954.42 178.228 985.168 165.952 1006.2 129.292C987.066 151.109 957.215 164.867 937.127 151.923C913.972 136.996 920.689 93.6966 948.537 61.5875C969.606 35.5329 998.644 25.8668 1016.65 36.8481V36.8273Z" fill="white"/>
<path d="M745.858 59.2285C732.737 49.6041 715.402 47.5373 701.071 54.8234C689.661 60.4811 679.272 70.5648 676.623 83.1745C674.746 92.4857 681.797 94.2185 689.786 95.7843C706.245 98.728 723.83 97.8929 739.955 106.369C753.931 113.363 762.088 131.714 754.974 146.286C749.175 159.167 737.076 167.79 725.415 174.032C682.777 195.681 619.153 199.857 581.25 167.08C608.848 185.535 643.643 186.6 675.142 180.358C697.88 175.305 721.661 166.954 737.619 149.877C747.882 138.875 746.359 125.221 733.363 118.624C715.256 109.438 692.018 114.281 673.432 103.655C658.016 94.0098 665.755 72.9656 675.997 62.5271C694.438 42.4224 726.667 38.0591 745.858 59.2493V59.2285Z" fill="white"/>
</g>
<defs>
<radialGradient id="paint0_radial_7348_416" cx="0" cy="0" r="1" gradientTransform="matrix(-109.894 27.2179 -27.1959 -109.982 153.779 151.303)" gradientUnits="userSpaceOnUse">
<stop offset="0.34" stop-color="white"/>
<stop offset="0.92" stop-color="white" stop-opacity="0.3"/>
</radialGradient>
<radialGradient id="paint1_radial_7348_416" cx="0" cy="0" r="1" gradientTransform="matrix(-59.8239 -96.1887 96.1111 -59.8722 139.476 146.214)" gradientUnits="userSpaceOnUse">
<stop offset="0.34" stop-color="white"/>
<stop offset="0.92" stop-color="white" stop-opacity="0.3"/>
</radialGradient>
<radialGradient id="paint2_radial_7348_416" cx="0" cy="0" r="1" gradientTransform="matrix(72.9205 -86.6657 86.5958 72.9793 139.871 131.041)" gradientUnits="userSpaceOnUse">
<stop offset="0.34" stop-color="white"/>
<stop offset="0.92" stop-color="white" stop-opacity="0.3"/>
</radialGradient>
<radialGradient id="paint3_radial_7348_416" cx="0" cy="0" r="1" gradientTransform="matrix(104.891 42.6263 -42.5919 104.976 154.424 126.702)" gradientUnits="userSpaceOnUse">
<stop offset="0.34" stop-color="white"/>
<stop offset="0.92" stop-color="white" stop-opacity="0.3"/>
</radialGradient>
<radialGradient id="paint4_radial_7348_416" cx="0" cy="0" r="1" gradientTransform="matrix(-8.09414 113.01 -112.919 -8.10067 163.016 139.223)" gradientUnits="userSpaceOnUse">
<stop offset="0.34" stop-color="white"/>
<stop offset="0.92" stop-color="white" stop-opacity="0.3"/>
</radialGradient>
<clipPath id="clip0_7348_416">
<rect width="1064" height="288" fill="white"/>
</clipPath>
</defs>
</svg>
