<svg preserveAspectRatio="none" width="100%" height="100%" overflow="visible" style="display: block;" viewBox="0 0 116.932 43.624" fill="none" xmlns="http://www.w3.org/2000/svg">
<g id="Group">
<path id="Vector" d="M115.282 10.1727C115.533 10.0721 115.698 9.82394 115.698 9.53987C115.698 9.05802 115.383 8.79192 114.845 8.79192H113.869V11.0178H114.389V10.2554H114.755L115.175 11.0178H115.766L115.282 10.1691V10.1727ZM114.795 9.83832H114.393V9.23422H114.784C115.013 9.23422 115.164 9.35288 115.164 9.53627C115.164 9.71966 115.021 9.83832 114.791 9.83832H114.795ZM115.282 10.1727C115.533 10.0721 115.698 9.82394 115.698 9.53987C115.698 9.05802 115.383 8.79192 114.845 8.79192H113.869V11.0178H114.389V10.2554H114.755L115.175 11.0178H115.766L115.282 10.1691V10.1727ZM114.795 9.83832H114.393V9.23422H114.784C115.013 9.23422 115.164 9.35288 115.164 9.53627C115.164 9.71966 115.021 9.83832 114.791 9.83832H114.795ZM114.759 7.70956H114.734C113.511 7.70956 112.557 8.66607 112.557 9.88867V9.91384C112.557 11.14 113.514 12.0965 114.734 12.0965H114.759C115.974 12.0965 116.932 11.14 116.932 9.91384V9.88867C116.932 8.66607 115.974 7.70956 114.759 7.70956ZM116.441 9.91743C116.441 10.8631 115.698 11.6075 114.759 11.6075H114.734C113.79 11.6075 113.048 10.8631 113.048 9.91743V9.89226C113.048 8.95014 113.79 8.20579 114.734 8.20579H114.759C115.698 8.20579 116.441 8.95014 116.441 9.89226V9.91743ZM115.698 9.53987C115.698 9.05802 115.383 8.79192 114.845 8.79192H113.869V11.0178H114.389V10.2554H114.755L115.175 11.0178H115.766L115.282 10.1691C115.533 10.0685 115.698 9.82034 115.698 9.53627V9.53987ZM114.795 9.83832H114.393V9.23422H114.784C115.013 9.23422 115.164 9.35288 115.164 9.53627C115.164 9.71966 115.021 9.83832 114.791 9.83832H114.795Z" fill="var(--fill-0, white)"/>
<g id="Group_2">
<path id="Vector_2" d="M39.5853 25.9982H36.2069C36.1962 26.0665 36.1926 26.16 36.1926 26.2859C36.1926 26.8756 36.3396 27.3431 36.6337 27.6811C36.9278 28.0191 37.3761 28.1881 37.975 28.1881C38.8214 28.1881 39.6427 27.8753 40.4425 27.246L40.941 28.1198C40.0014 28.8641 38.9577 29.2345 37.8172 29.2345C36.9995 29.2345 36.3289 28.99 35.8053 28.4974C35.2816 28.0083 35.0198 27.3143 35.0198 26.4189C35.0198 25.8939 35.1059 25.3689 35.2852 24.8403C35.461 24.3118 35.7192 23.8119 36.0563 23.3409C36.3934 22.8698 36.8489 22.485 37.4263 22.1902C38.0001 21.8953 38.6493 21.7479 39.3737 21.7479C40.0587 21.7479 40.6326 21.9277 41.0988 22.2909C41.565 22.6541 41.7982 23.1683 41.7982 23.8335C41.7982 24.434 41.6081 24.9446 41.2279 25.3689C40.8478 25.7933 40.3026 26.0054 39.5889 26.0054L39.5853 25.9982ZM39.2303 22.6684C38.5094 22.6684 37.8997 22.8986 37.4048 23.3624C36.9099 23.8263 36.562 24.4052 36.3647 25.0992H39.5602C39.9225 25.0992 40.2058 24.9698 40.4102 24.7145C40.6146 24.4556 40.7151 24.1715 40.7151 23.8551C40.7151 23.5027 40.586 23.215 40.3241 22.9957C40.0623 22.7763 39.7001 22.6684 39.2339 22.6684H39.2303Z" fill="var(--fill-0, white)"/>
<path id="Vector_3" d="M48.4839 21.9205H49.6674L48.4121 29.0835H47.2573L47.4581 27.9544C46.3822 28.821 45.3708 29.2561 44.4204 29.2561C43.7247 29.2561 43.2262 29.0403 42.9249 28.6052C42.6201 28.1701 42.5304 27.5984 42.6523 26.8828L43.5238 21.9205H44.693L43.8359 26.8109C43.7498 27.2891 43.7749 27.6343 43.9148 27.8537C44.051 28.073 44.3164 28.1809 44.7074 28.1809C45.5358 28.1809 46.5077 27.7566 47.6303 26.908L48.4874 21.9169L48.4839 21.9205Z" fill="var(--fill-0, white)"/>
<path id="Vector_4" d="M55.0151 21.7371C55.3271 21.7371 55.614 21.7946 55.8722 21.9097L55.5315 22.9381C55.2948 22.8626 55.0653 22.8231 54.8465 22.8231C54.0467 22.8231 53.2362 23.1898 52.4077 23.9234L51.5111 29.0691H50.3419L51.5972 21.9205H52.7377L52.5799 22.8195C53.2828 22.0967 54.0969 21.7335 55.0186 21.7335L55.0151 21.7371Z" fill="var(--fill-0, white)"/>
<path id="Vector_5" d="M58.2507 29.2273C57.3469 29.2273 56.644 28.9684 56.1419 28.4542C55.6362 27.94 55.3851 27.2388 55.3851 26.3542C55.3851 26.0593 55.4138 25.7501 55.4712 25.4264C55.6792 24.3117 56.1455 23.4164 56.8699 22.7475C57.5908 22.0751 58.4623 21.7407 59.4808 21.7407C60.3918 21.7407 61.0983 21.996 61.5968 22.5066C62.0953 23.0172 62.3464 23.7148 62.3464 24.5994C62.3464 24.8943 62.3177 25.2107 62.2603 25.5415C62.0702 26.6562 61.6147 27.5516 60.8975 28.2204C60.1802 28.8929 59.2979 29.2273 58.2543 29.2273H58.2507ZM58.3224 28.1845C59.0648 28.1845 59.6709 27.9472 60.1479 27.4689C60.6249 26.9907 60.9405 26.311 61.1019 25.4229C61.1593 25.11 61.1879 24.8223 61.1879 24.5634C61.1879 23.3732 60.5998 22.7763 59.4198 22.7763C58.6775 22.7763 58.0714 23.0136 57.5944 23.4847C57.1174 23.9557 56.7946 24.6389 56.626 25.5343C56.5686 25.8472 56.54 26.1348 56.54 26.3937C56.54 27.584 57.1353 28.1809 58.3224 28.1809V28.1845Z" fill="var(--fill-0, white)"/>
</g>
<g id="Group_3">
<path id="Vector_6" d="M81.9339 21.9208H83.06L81.8048 29.0694H80.65L80.8078 28.1704C80.112 28.8932 79.2907 29.2563 78.3403 29.2563C77.4939 29.2563 76.8232 28.9974 76.3283 28.476C75.8334 27.9582 75.5859 27.2534 75.5859 26.3689C75.5859 25.5957 75.7366 24.8658 76.0342 24.1754C76.3319 23.485 76.7981 22.906 77.4258 22.4386C78.0534 21.9711 78.7814 21.7374 79.6063 21.7374C80.6033 21.7374 81.3278 22.1077 81.7725 22.8521L81.9303 21.9244L81.9339 21.9208ZM78.5985 28.2099C79.0935 28.2099 79.531 28.0949 79.9112 27.8611C80.2913 27.6274 80.5854 27.3254 80.7934 26.955C81.0014 26.5846 81.1592 26.1998 81.2632 25.8043C81.3672 25.4088 81.421 25.0204 81.421 24.6392C81.421 24.0387 81.2632 23.5785 80.9512 23.2584C80.6392 22.9384 80.1909 22.7802 79.6099 22.7802C78.9643 22.7802 78.4156 22.9708 77.9637 23.3519C77.5118 23.7331 77.1962 24.1826 77.0169 24.704C76.8376 25.2218 76.7443 25.7791 76.7443 26.3689C76.7623 27.5986 77.3827 28.2135 78.5985 28.2135V28.2099Z" fill="var(--fill-0, white)"/>
<path id="Vector_7" d="M85.8684 29.2273C85.3377 29.2273 84.8284 29.1266 84.3442 28.9289C83.86 28.7275 83.4871 28.447 83.2324 28.0838L83.8887 27.3539C84.4482 27.9544 85.1512 28.2528 85.9976 28.2528C86.5965 28.2528 87.0591 28.1234 87.3891 27.8609C87.7154 27.5984 87.8804 27.3071 87.8804 26.9835C87.8804 26.8684 87.8517 26.7642 87.7943 26.6707C87.737 26.5772 87.6796 26.4981 87.615 26.4333C87.5541 26.3722 87.4501 26.3039 87.303 26.232C87.156 26.16 87.0376 26.1097 86.9551 26.0809C86.8691 26.0522 86.7256 26.009 86.5283 25.9443C86.3275 25.8832 86.1912 25.8364 86.1159 25.8076C85.5636 25.6171 85.1261 25.3833 84.7961 25.1065C84.4697 24.8296 84.3048 24.4448 84.3048 23.9486C84.3048 23.3373 84.5594 22.8159 85.0687 22.3844C85.578 21.9493 86.2845 21.7335 87.1847 21.7335C88.153 21.7335 88.9384 21.996 89.5374 22.521L88.8954 23.2797C88.3825 22.8878 87.7979 22.6936 87.1416 22.6936C86.6108 22.6936 86.1876 22.8087 85.8792 23.0424C85.5708 23.2762 85.4166 23.5494 85.4166 23.8659C85.4166 24.0565 85.4847 24.2219 85.6246 24.3585C85.7609 24.4952 85.9115 24.5994 86.0657 24.6642C86.2235 24.7325 86.453 24.8116 86.7579 24.9087C87.0448 25.0058 87.26 25.0777 87.4142 25.1316C87.5648 25.1856 87.7621 25.2683 88.0059 25.3905C88.2498 25.5092 88.4291 25.6315 88.5475 25.7537C88.6659 25.876 88.777 26.0414 88.8739 26.2392C88.9743 26.4405 89.0245 26.6599 89.0245 26.8972C89.0245 27.4977 88.7555 28.0371 88.2176 28.5117C87.6796 28.99 86.8977 29.2273 85.872 29.2273H85.8684Z" fill="var(--fill-0, white)"/>
</g>
<path id="Vector_8" d="M35.815 9.90665C35.2842 12.3051 34.6781 14.6892 33.9644 17.0409C33.2973 19.2379 32.6374 21.4602 31.5759 23.5063C31.1562 24.3117 30.6613 25.1028 29.9333 25.6422C29.3487 26.0773 28.5884 26.3326 27.8675 26.1348C27.1395 25.9371 26.5871 25.3366 26.1926 24.6929C24.0623 21.2229 22.9971 17.2422 21.0354 13.6895C20.458 12.6467 19.5685 11.3414 18.3097 11.1724C15.7741 10.8308 14.4615 14.0563 13.633 15.9154C12.3024 18.9071 11.3198 22.0499 10.0502 25.0669C8.87741 27.8537 7.59347 30.5973 6.19835 33.2762C4.50556 36.5305 2.64421 39.6949 0.589188 42.7334C0.424212 42.9779 0.255651 43.2188 0.0906754 43.4634C-0.472393 44.3012 1.71532 41.6798 3.11044 39.8207C9.61979 31.1439 13.676 21.2552 15.9606 17.7277C16.269 17.253 16.5918 16.7784 17.0258 16.4152C19.5147 14.3404 21.125 18.9539 21.8387 20.59C22.9864 23.2186 23.9583 25.9766 25.7156 28.278C26.2751 29.0115 26.9709 29.7235 27.8711 29.9033C28.843 30.0975 29.8508 29.6049 30.5358 28.8821C32.4402 26.8684 33.1826 23.5602 33.8676 20.9676C34.4342 18.8208 34.8646 16.6417 35.2125 14.4482C35.3775 13.409 35.7002 10.5611 35.815 9.91024V9.90665Z" fill="var(--fill-0, white)"/>
<path id="Vector_9" d="M77.0626 15.3508C75.9042 16.9761 71.3566 24.4088 69.7786 26.2139C69.1725 26.836 68.387 27.2603 67.5514 26.818C65.2238 25.5883 63.6422 13.9017 63.2656 12.3626C63.3696 13.5888 63.7426 18.8208 63.9291 20.1477C64.2806 22.6432 64.485 25.3725 65.5466 27.6811C66.0559 28.7922 66.9345 29.8925 68.1503 30.0256C70.7003 30.3025 72.1169 27.1453 73.1498 25.3581C74.5951 22.8554 76.0512 20.3563 77.5145 17.8643C80.2832 13.1537 83.1344 8.52942 86.502 4.21437C87.6103 2.79759 88.7328 1.38441 89.884 0C89.3891 0.611299 88.6539 1.11472 88.0944 1.67568C84.2928 5.51248 81.0901 9.8563 77.8982 14.1965C77.6185 14.5777 77.3423 14.9588 77.0698 15.3436L77.0626 15.3508Z" fill="var(--fill-0, white)"/>
<path id="Vector_10" d="M109.335 9.43559C109.841 9.74483 110.278 10.1296 110.648 10.5791C110.034 9.46795 109.131 8.62652 107.962 8.16265C107.499 7.97926 107.011 7.8606 106.509 7.80666C103.023 7.00118 98.0343 9.55425 94.4837 14.5669C89.8608 21.0898 89.5596 28.8569 94.2757 31.4208C98.6368 33.7905 103.923 31.6761 107.538 25.3617C104.25 29.1194 99.1174 31.4891 95.6637 29.2597C91.6828 26.6886 92.8376 19.2308 97.6255 13.7003C101.248 9.21265 106.24 7.54775 109.335 9.43919V9.43559Z" fill="var(--fill-0, white)"/>
</g>
</svg>
