<svg preserveAspectRatio="none" width="100%" height="100%" overflow="visible" style="display: block;" viewBox="0 0 40 40" fill="none" xmlns="http://www.w3.org/2000/svg">
<g id="Social / Facebook">
<rect x="0.5" y="0.5" width="39" height="39" rx="19.5" stroke="var(--stroke-0, white)"/>
<path id="Shape" d="M20.4941 27.2384H13.5606C13.1192 27.2384 12.7616 26.8806 12.7616 26.4394V13.5606C12.7616 13.1192 13.1192 12.7616 13.5606 12.7616H26.4395C26.8807 12.7616 27.2384 13.1192 27.2384 13.5606V26.4394C27.2384 26.8806 26.8806 27.2384 26.4395 27.2384H22.7504V21.6322H24.6322L24.9139 19.4473H22.7504V18.0524C22.7504 17.4199 22.9261 16.9888 23.8331 16.9888L24.9901 16.9883V15.0342C24.79 15.0075 24.1033 14.948 23.3042 14.948C21.6361 14.948 20.4941 15.9662 20.4941 17.8361V19.4473H18.6075V21.6322H20.4941V27.2384Z" fill="var(--fill-0, white)"/>
</g>
</svg>
